<svg width="21" height="22" viewBox="0 0 21 22" fill="none" stroke="currentColor" xmlns="http://www.w3.org/2000/svg">
<circle cx="3" cy="3" r="3" transform="matrix(-1 0 0 1 13.4834 8)" stroke="currentColor" stroke-width="1.5"/>
<path d="M14.9844 3.9375L15.3594 3.28798V3.28798L14.9844 3.9375ZM14.9844 18.0621L14.6094 17.4126H14.6094L14.9844 18.0621ZM5.9844 18.0621L5.6094 18.7117H5.6094L5.9844 18.0621ZM5.9844 3.9375L6.3594 4.58702L5.9844 3.9375ZM7.40736 2.01498L6.67666 1.84594L7.40736 2.01498ZM8.02362 1.30489L7.83968 0.577798L8.02362 1.30489ZM1.04014 7.70289L0.332046 7.45569L1.04014 7.70289ZM3.79592 17.7403L3.96817 18.4702L3.79592 17.7403ZM2.88694 17.5031L2.31741 17.9911L2.88694 17.5031ZM8.02371 20.6951L7.83978 21.4222L8.02371 20.6951ZM7.40742 19.9849L6.6767 20.1539L7.40742 19.9849ZM13.5614 19.9847L14.2921 20.1538L13.5614 19.9847ZM12.9453 20.6948L13.1293 21.4219L12.9453 20.6948ZM18.081 17.5029L17.5114 17.0149L18.081 17.5029ZM17.1722 17.7401L17.3443 17.0101L17.1722 17.7401ZM19.9275 7.70289L19.2195 7.95009L19.9275 7.70289ZM19.5774 8.68353L19.1005 8.10469L19.5774 8.68353ZM1.04014 14.2971L0.332044 14.5443L1.04014 14.2971ZM1.39027 13.3165L1.86718 13.8953L1.39027 13.3165ZM17.172 4.25957L17 3.52957L17.172 4.25957ZM18.0807 4.49681L18.6502 4.00882L18.0807 4.49681ZM19.5774 13.3165L20.0543 12.7376L19.5774 13.3165ZM19.9275 14.2971L19.2195 14.0499L19.9275 14.2971ZM13.5615 2.01519L14.2922 1.84609L13.5615 2.01519ZM12.9453 1.30522L12.7613 2.03229L12.9453 1.30522ZM12.8308 2.18429C13.0566 3.16011 13.6722 4.04594 14.6094 4.58702L15.3594 3.28798C14.797 2.96331 14.4282 2.43384 14.2922 1.84609L12.8308 2.18429ZM14.6094 4.58702C15.4702 5.08401 16.4479 5.20077 17.344 4.98957L17 3.52957C16.4609 3.65662 15.8764 3.58646 15.3594 3.28798L14.6094 4.58702ZM20.6356 7.4557C20.1901 6.17942 19.511 5.01346 18.6502 4.00882L17.5112 4.98481C18.2526 5.85011 18.8366 6.85333 19.2195 7.95009L20.6356 7.4557ZM19.2338 11C19.2338 10.3006 19.552 9.67623 20.0543 9.26236L19.1005 8.10469C18.2672 8.79128 17.7338 9.83367 17.7338 11H19.2338ZM20.0543 12.7376C19.552 12.3238 19.2338 11.6994 19.2338 11H17.7338C17.7338 12.1663 18.2672 13.2087 19.1005 13.8953L20.0543 12.7376ZM18.6505 17.9908C19.5112 16.9863 20.1901 15.8204 20.6356 14.5443L19.2195 14.0499C18.8366 15.1465 18.2527 16.1497 17.5114 17.0149L18.6505 17.9908ZM15.3594 18.7117C15.8764 18.4132 16.461 18.343 17.0001 18.4701L17.3443 17.0101C16.448 16.7989 15.4703 16.9156 14.6094 17.4126L15.3594 18.7117ZM14.2921 20.1538C14.4281 19.5659 14.797 19.0364 15.3594 18.7117L14.6094 17.4126C13.6721 17.9538 13.0565 18.8397 12.8307 19.8157L14.2921 20.1538ZM10.4838 21.75C11.3958 21.75 12.2822 21.6363 13.1293 21.4219L12.7612 19.9677C12.0335 20.1519 11.2706 20.25 10.4838 20.25V21.75ZM7.83978 21.4222C8.68644 21.6364 9.57241 21.75 10.4838 21.75V20.25C9.69746 20.25 8.93503 20.152 8.20764 19.968L7.83978 21.4222ZM5.6094 18.7117C6.17187 19.0364 6.54075 19.566 6.6767 20.1539L8.13814 19.816C7.91242 18.8399 7.29677 17.9538 6.3594 17.4126L5.6094 18.7117ZM3.96817 18.4702C4.50745 18.343 5.09221 18.4131 5.6094 18.7117L6.3594 17.4126C5.49823 16.9154 4.52012 16.7988 3.62366 17.0103L3.96817 18.4702ZM0.332044 14.5443C0.777588 15.8206 1.45662 16.9865 2.31741 17.9911L3.45647 17.0151C2.71506 16.1498 2.1311 15.1466 1.74823 14.0499L0.332044 14.5443ZM1.73384 11C1.73384 11.6994 1.41566 12.3238 0.913345 12.7376L1.86718 13.8953C2.70049 13.2087 3.23384 12.1663 3.23384 11H1.73384ZM0.913347 9.26236C1.41566 9.67623 1.73384 10.3006 1.73384 11H3.23384C3.23384 9.83367 2.70049 8.79128 1.86719 8.10469L0.913347 9.26236ZM2.3177 4.00854C1.45677 5.01324 0.777639 6.1793 0.332046 7.45569L1.74823 7.95009C2.13115 6.85323 2.71519 5.84993 3.45672 4.98457L2.3177 4.00854ZM5.6094 3.28798C5.09225 3.58656 4.50755 3.65666 3.96831 3.52944L3.62388 4.98937C4.52029 5.20085 5.49831 5.08417 6.3594 4.58702L5.6094 3.28798ZM6.67666 1.84594C6.54067 2.43375 6.1718 2.96328 5.6094 3.28798L6.3594 4.58702C7.29666 4.04589 7.91228 3.15996 8.13806 2.18403L6.67666 1.84594ZM10.4838 0.25C9.57238 0.25 8.68638 0.363604 7.83968 0.577798L8.20756 2.03199C8.93498 1.84797 9.69744 1.75 10.4838 1.75V0.25ZM13.1294 0.578148C12.2823 0.363727 11.3958 0.25 10.4838 0.25V1.75C11.2707 1.75 12.0335 1.84807 12.7613 2.03229L13.1294 0.578148ZM8.13806 2.18403C8.15367 2.11656 8.18012 2.06896 8.20064 2.04399C8.21827 2.02255 8.22142 2.02848 8.20756 2.03199L7.83968 0.577798C7.14841 0.752676 6.79147 1.34968 6.67666 1.84594L8.13806 2.18403ZM1.86719 8.10469C1.8063 8.05453 1.77091 8.00026 1.75672 7.96396C1.74478 7.93343 1.75357 7.9348 1.74823 7.95009L0.332046 7.45569C0.0660359 8.21767 0.478184 8.90381 0.913347 9.26236L1.86719 8.10469ZM3.62366 17.0103C3.55642 17.0262 3.50214 17.0236 3.47067 17.0163C3.44361 17.01 3.44734 17.0045 3.45647 17.0151L2.31741 17.9911C2.78052 18.5316 3.47257 18.5872 3.96817 18.4702L3.62366 17.0103ZM8.20764 19.968C8.2215 19.9715 8.21835 19.9775 8.20072 19.956C8.1802 19.9311 8.15374 19.8834 8.13814 19.816L6.6767 20.1539C6.79148 20.6502 7.14842 21.2473 7.83978 21.4222L8.20764 19.968ZM12.8307 19.8157C12.8151 19.8832 12.7887 19.9308 12.7681 19.9557C12.7505 19.9772 12.7474 19.9712 12.7612 19.9677L13.1293 21.4219C13.8205 21.2469 14.1773 20.65 14.2921 20.1538L12.8307 19.8157ZM17.5114 17.0149C17.5206 17.0042 17.5243 17.0097 17.4972 17.016C17.4658 17.0234 17.4115 17.026 17.3443 17.0101L17.0001 18.4701C17.4956 18.5869 18.1875 18.5312 18.6505 17.9908L17.5114 17.0149ZM19.2195 7.95009C19.2141 7.9348 19.2229 7.93343 19.211 7.96396C19.1968 8.00026 19.1614 8.05453 19.1005 8.10469L20.0543 9.26236C20.4895 8.90382 20.9016 8.21768 20.6356 7.4557L19.2195 7.95009ZM1.74823 14.0499C1.75357 14.0652 1.74478 14.0666 1.75671 14.036C1.77091 13.9997 1.8063 13.9455 1.86718 13.8953L0.913345 12.7376C0.478182 13.0962 0.0660353 13.7823 0.332044 14.5443L1.74823 14.0499ZM17.344 4.98957C17.4113 4.97373 17.4655 4.97634 17.497 4.98367C17.524 4.98997 17.5203 4.99547 17.5112 4.98481L18.6502 4.00882C18.1873 3.4685 17.4955 3.41279 17 3.52957L17.344 4.98957ZM3.45672 4.98457C3.44758 4.99523 3.44386 4.98973 3.47092 4.98343C3.50238 4.97611 3.55665 4.9735 3.62388 4.98937L3.96831 3.52944C3.47275 3.41253 2.78078 3.46812 2.3177 4.00854L3.45672 4.98457ZM19.1005 13.8953C19.1614 13.9455 19.1968 13.9997 19.211 14.036C19.2229 14.0666 19.2141 14.0652 19.2195 14.0499L20.6356 14.5443C20.9016 13.7823 20.4895 13.0962 20.0543 12.7376L19.1005 13.8953ZM14.2922 1.84609C14.1774 1.34993 13.8205 0.75308 13.1294 0.578148L12.7613 2.03229C12.7475 2.02878 12.7506 2.02285 12.7682 2.04429C12.7887 2.06925 12.8152 2.11683 12.8308 2.18429L14.2922 1.84609Z" fill="white" stroke="currentColor"/>
</svg>
